<svg xmlns="http://www.w3.org/2000/svg" xmlns:xlink="http://www.w3.org/1999/xlink" width="500" zoomAndPan="magnify" viewBox="0 0 375 374.999991" height="500" preserveAspectRatio="xMidYMid meet" version="1.0"><defs><clipPath id="335b95aee6"><path d="M 95.132812 85.28125 L 238 85.28125 L 238 290 L 95.132812 290 Z M 95.132812 85.28125 " clip-rule="nonzero"/></clipPath><clipPath id="3573e6b08c"><path d="M 170 101 L 279 101 L 279 290.03125 L 170 290.03125 Z M 170 101 " clip-rule="nonzero"/></clipPath></defs><g clip-path="url(#335b95aee6)"><path fill="#333333" d="M 210.980469 140.800781 L 229.589844 123.632812 L 229.589844 97.171875 C 229.589844 96.679688 229.636719 96.191406 229.734375 95.710938 C 229.828125 95.226562 229.96875 94.757812 230.15625 94.304688 C 230.34375 93.847656 230.574219 93.414062 230.847656 93.007812 C 231.117188 92.597656 231.425781 92.21875 231.773438 91.867188 C 232.117188 91.519531 232.496094 91.207031 232.902344 90.933594 C 233.308594 90.65625 233.738281 90.425781 234.191406 90.234375 C 234.644531 90.046875 235.113281 89.902344 235.59375 89.800781 C 236.074219 89.703125 236.558594 89.652344 237.050781 89.652344 L 237.050781 85.4375 L 137.515625 85.4375 L 137.515625 89.652344 C 138.007812 89.652344 138.496094 89.699219 138.976562 89.796875 C 139.460938 89.890625 139.929688 90.035156 140.386719 90.222656 C 140.839844 90.414062 141.273438 90.644531 141.683594 90.917969 C 142.089844 91.191406 142.46875 91.503906 142.816406 91.855469 C 143.167969 92.203125 143.476562 92.582031 143.75 92.992188 C 144.023438 93.40625 144.253906 93.835938 144.445312 94.292969 C 144.632812 94.75 144.773438 95.21875 144.871094 95.703125 C 144.96875 96.1875 145.015625 96.679688 145.015625 97.171875 L 145.015625 130.089844 L 125.382812 111.859375 L 113.601562 101.070312 L 106.691406 106.425781 L 106.378906 106.660156 L 95.816406 114.8125 C 96.605469 115.085938 97.367188 115.421875 98.101562 115.8125 C 98.839844 116.207031 99.539062 116.65625 100.207031 117.15625 C 100.875 117.660156 101.5 118.210938 102.082031 118.808594 C 102.664062 119.410156 103.195312 120.050781 103.675781 120.734375 C 104.160156 121.414062 104.585938 122.128906 104.960938 122.878906 C 105.332031 123.628906 105.644531 124.402344 105.894531 125.199219 C 106.148438 125.996094 106.339844 126.808594 106.464844 127.632812 C 106.59375 128.460938 106.65625 129.292969 106.652344 130.128906 L 106.652344 213.445312 C 106.660156 214.761719 106.503906 216.054688 106.195312 217.332031 C 105.882812 218.609375 105.421875 219.828125 104.8125 220.992188 C 104.203125 222.15625 103.464844 223.226562 102.59375 224.207031 C 101.722656 225.191406 100.746094 226.050781 99.664062 226.792969 L 106.652344 233.683594 L 107.4375 234.433594 L 111.835938 238.765625 L 115.332031 242.191406 L 118.238281 245.105469 L 125.265625 251.835938 L 125.265625 124.105469 L 144.898438 142.335938 L 144.898438 251.128906 C 144.898438 252.445312 144.742188 253.746094 144.425781 255.023438 C 144.109375 256.304688 143.648438 257.527344 143.035156 258.695312 C 142.421875 259.859375 141.679688 260.9375 140.804688 261.921875 C 139.933594 262.90625 138.953125 263.769531 137.867188 264.515625 L 145.015625 271.523438 L 163.625 289.832031 L 163.625 95.046875 L 210.980469 95.046875 Z M 210.980469 140.800781 " fill-opacity="1" fill-rule="nonzero"/></g><g clip-path="url(#3573e6b08c)"><path fill="#333333" d="M 267.953125 213.445312 L 267.953125 130.128906 C 267.949219 129.292969 268.011719 128.460938 268.140625 127.632812 C 268.265625 126.808594 268.457031 125.996094 268.707031 125.199219 C 268.960938 124.402344 269.273438 123.628906 269.644531 122.878906 C 270.015625 122.128906 270.445312 121.414062 270.925781 120.734375 C 271.410156 120.050781 271.941406 119.410156 272.523438 118.808594 C 273.105469 118.210938 273.730469 117.660156 274.398438 117.15625 C 275.0625 116.65625 275.765625 116.207031 276.503906 115.8125 C 277.238281 115.421875 278 115.085938 278.789062 114.8125 L 268.265625 106.660156 L 267.992188 106.425781 L 261.039062 101.070312 L 249.261719 111.859375 L 229.628906 130.089844 L 211.019531 147.257812 L 187.460938 169.109375 L 182.90625 164.9375 L 170.105469 153.398438 L 170.105469 165.644531 L 176.152344 171.238281 L 180.707031 175.410156 L 187.339844 181.550781 L 210.898438 203.40625 L 210.898438 290.03125 L 229.589844 271.523438 L 236.617188 264.59375 C 235.535156 263.847656 234.554688 262.984375 233.683594 262 C 232.808594 261.015625 232.066406 259.9375 231.453125 258.773438 C 230.839844 257.605469 230.375 256.382812 230.0625 255.105469 C 229.746094 253.824219 229.589844 252.523438 229.589844 251.207031 L 229.589844 208.128906 L 210.980469 190.964844 L 193.9375 175.214844 L 210.980469 159.464844 L 229.589844 142.296875 L 249.222656 124.066406 L 249.222656 251.835938 L 256.484375 245.105469 L 259.429688 242.191406 L 262.925781 238.765625 L 268.109375 233.683594 L 275.058594 226.792969 C 273.96875 226.058594 272.984375 225.199219 272.101562 224.21875 C 271.222656 223.238281 270.472656 222.167969 269.851562 221.003906 C 269.234375 219.839844 268.761719 218.621094 268.441406 217.34375 C 268.121094 216.0625 267.957031 214.765625 267.953125 213.445312 Z M 267.953125 213.445312 " fill-opacity="1" fill-rule="nonzero"/></g></svg>